<svg width="500" height="108" viewBox="0 0 500 108" fill="none" xmlns="http://www.w3.org/2000/svg">
<rect y="2" width="455" height="106" fill="#363636"/>
<rect x="231" y="2" width="269" height="106" fill="#FFA500"/>
<path d="M276.496 58.68V71.352C276.496 71.784 276.712 72.048 277.144 72.144C278.152 72.336 279.376 72.432 280.816 72.432C284.224 72.432 286.72 71.808 288.304 70.56C289.888 69.264 290.68 67.296 290.68 64.656C290.68 60.24 287.08 58.032 279.88 58.032H277.072C276.688 58.032 276.496 58.248 276.496 58.68ZM276.496 38.088V48.672C276.496 49.056 276.688 49.248 277.072 49.248H278.872C285.88 49.248 289.384 47.16 289.384 42.984C289.384 39 286.456 37.008 280.6 37.008C279.208 37.008 278.032 37.104 277.072 37.296C276.688 37.392 276.496 37.656 276.496 38.088ZM268.504 81.144C267.352 81.048 266.392 80.544 265.624 79.632C264.856 78.72 264.472 77.688 264.472 76.536V32.904C264.472 31.704 264.856 30.672 265.624 29.808C266.44 28.896 267.424 28.392 268.576 28.296C272.32 27.912 275.992 27.72 279.592 27.72C293.512 27.72 300.472 32.208 300.472 41.184C300.472 44.208 299.488 46.776 297.52 48.888C295.6 51 293.008 52.344 289.744 52.92C289.696 52.92 289.672 52.968 289.672 53.064C289.672 53.112 289.72 53.136 289.816 53.136C293.608 53.664 296.608 55.104 298.816 57.456C301.072 59.808 302.2 62.616 302.2 65.88C302.2 71.208 300.424 75.192 296.872 77.832C293.368 80.424 287.848 81.72 280.312 81.72C276.52 81.72 272.584 81.528 268.504 81.144ZM326.814 63.864C320.958 63.864 318.03 65.664 318.03 69.264C318.03 70.56 318.414 71.592 319.182 72.36C319.95 73.08 320.982 73.44 322.278 73.44C324.582 73.44 326.454 72.72 327.894 71.28C329.334 69.792 330.054 67.824 330.054 65.376V64.512C330.054 64.08 329.838 63.864 329.406 63.864H326.814ZM318.75 81.72C315.438 81.72 312.702 80.664 310.542 78.552C308.43 76.392 307.374 73.608 307.374 70.2C307.374 61.464 313.854 57.096 326.814 57.096H329.406C329.838 57.096 330.054 56.904 330.054 56.52V56.16C330.054 54.336 329.574 53.016 328.614 52.2C327.702 51.384 326.142 50.976 323.934 50.976C321.006 50.976 317.502 51.432 313.422 52.344C312.414 52.536 311.502 52.32 310.686 51.696C309.918 51.072 309.534 50.256 309.534 49.248V49.104C309.534 47.904 309.894 46.824 310.614 45.864C311.382 44.856 312.342 44.256 313.494 44.064C317.718 43.248 321.366 42.84 324.438 42.84C330.726 42.84 335.166 43.968 337.758 46.224C340.398 48.48 341.718 52.224 341.718 57.456V76.896C341.718 78 341.31 78.96 340.494 79.776C339.678 80.592 338.718 81 337.614 81H334.95C333.798 81 332.814 80.616 331.998 79.848C331.182 79.032 330.75 78.048 330.702 76.896V76.104C330.702 76.056 330.678 76.032 330.63 76.032C330.534 76.032 330.486 76.056 330.486 76.104C327.462 79.848 323.55 81.72 318.75 81.72ZM353.461 69.696L368.005 51.912V51.768C368.005 51.72 367.981 51.696 367.933 51.696H354.973C353.869 51.696 352.909 51.312 352.093 50.544C351.277 49.728 350.869 48.768 350.869 47.664C350.869 46.56 351.277 45.6 352.093 44.784C352.909 43.968 353.869 43.56 354.973 43.56H378.445C379.549 43.56 380.509 43.968 381.325 44.784C382.141 45.6 382.549 46.56 382.549 47.664C382.549 50.352 381.685 52.752 379.957 54.864L365.413 72.648V72.792C365.413 72.84 365.437 72.864 365.485 72.864H378.445C379.549 72.864 380.509 73.272 381.325 74.088C382.141 74.856 382.549 75.792 382.549 76.896C382.549 78 382.141 78.96 381.325 79.776C380.509 80.592 379.549 81 378.445 81H354.973C353.869 81 352.909 80.592 352.093 79.776C351.277 78.96 350.869 78 350.869 76.896C350.869 74.208 351.733 71.808 353.461 69.696ZM409.712 63.864C403.856 63.864 400.928 65.664 400.928 69.264C400.928 70.56 401.312 71.592 402.08 72.36C402.848 73.08 403.88 73.44 405.176 73.44C407.48 73.44 409.352 72.72 410.792 71.28C412.232 69.792 412.952 67.824 412.952 65.376V64.512C412.952 64.08 412.736 63.864 412.304 63.864H409.712ZM401.648 81.72C398.336 81.72 395.6 80.664 393.44 78.552C391.328 76.392 390.272 73.608 390.272 70.2C390.272 61.464 396.752 57.096 409.712 57.096H412.304C412.736 57.096 412.952 56.904 412.952 56.52V56.16C412.952 54.336 412.472 53.016 411.512 52.2C410.6 51.384 409.04 50.976 406.832 50.976C403.904 50.976 400.4 51.432 396.32 52.344C395.312 52.536 394.4 52.32 393.584 51.696C392.816 51.072 392.432 50.256 392.432 49.248V49.104C392.432 47.904 392.792 46.824 393.512 45.864C394.28 44.856 395.24 44.256 396.392 44.064C400.616 43.248 404.264 42.84 407.336 42.84C413.624 42.84 418.064 43.968 420.656 46.224C423.296 48.48 424.616 52.224 424.616 57.456V76.896C424.616 78 424.208 78.96 423.392 79.776C422.576 80.592 421.616 81 420.512 81H417.848C416.696 81 415.712 80.616 414.896 79.848C414.08 79.032 413.648 78.048 413.6 76.896V76.104C413.6 76.056 413.576 76.032 413.528 76.032C413.432 76.032 413.384 76.056 413.384 76.104C410.36 79.848 406.448 81.72 401.648 81.72ZM437.8 81C436.696 81 435.736 80.592 434.92 79.776C434.152 78.96 433.768 78 433.768 76.896V47.664C433.768 46.56 434.152 45.6 434.92 44.784C435.736 43.968 436.696 43.56 437.8 43.56H441.328C442.432 43.56 443.368 43.968 444.136 44.784C444.952 45.6 445.36 46.56 445.36 47.664V50.688C445.36 50.736 445.384 50.76 445.432 50.76C445.528 50.76 445.576 50.736 445.576 50.688C448.552 46.704 452.704 44.376 458.032 43.704C459.136 43.56 460.072 43.896 460.84 44.712C461.656 45.528 462.064 46.512 462.064 47.664V48.24C462.064 49.344 461.656 50.304 460.84 51.12C460.072 51.936 459.112 52.392 457.96 52.488C454.072 52.92 451.048 54.264 448.888 56.52C446.776 58.728 445.72 61.608 445.72 65.16V76.896C445.72 78 445.312 78.96 444.496 79.776C443.728 80.592 442.792 81 441.688 81H437.8Z" fill="white"/>
<path d="M52.192 39.096L46.936 59.76C46.888 59.904 46.912 60.048 47.008 60.192C47.152 60.288 47.296 60.336 47.44 60.336H57.088C57.232 60.336 57.352 60.288 57.448 60.192C57.592 60.048 57.64 59.904 57.592 59.76L52.336 39.096C52.336 39.048 52.312 39.024 52.264 39.024C52.216 39.024 52.192 39.048 52.192 39.096ZM32.968 81C31.96 81 31.144 80.592 30.52 79.776C29.944 78.96 29.824 78.072 30.16 77.112L44.704 32.328C45.088 31.176 45.76 30.24 46.72 29.52C47.728 28.8 48.832 28.44 50.032 28.44H54.784C56.032 28.44 57.16 28.8 58.168 29.52C59.176 30.24 59.848 31.176 60.184 32.328L74.656 77.112C74.992 78.072 74.848 78.96 74.224 79.776C73.648 80.592 72.856 81 71.848 81H67.024C65.824 81 64.744 80.64 63.784 79.92C62.824 79.152 62.2 78.192 61.912 77.04L60.184 70.2C60.136 69.816 59.896 69.624 59.464 69.624H45.064C44.68 69.624 44.44 69.816 44.344 70.2L42.616 77.04C42.328 78.192 41.704 79.152 40.744 79.92C39.784 80.64 38.704 81 37.504 81H32.968ZM93.9565 66.6C88.7725 65.64 85.0525 64.152 82.7965 62.136C80.5885 60.12 79.4845 57.456 79.4845 54.144C79.4845 50.592 80.8045 47.832 83.4445 45.864C86.1325 43.848 90.1645 42.84 95.5405 42.84C98.7085 42.84 101.949 43.104 105.261 43.632C106.413 43.824 107.349 44.376 108.069 45.288C108.837 46.2 109.221 47.256 109.221 48.456V48.816C109.221 49.824 108.813 50.64 107.997 51.264C107.229 51.888 106.341 52.104 105.333 51.912C102.213 51.288 99.3325 50.976 96.6925 50.976C94.7245 50.976 93.3325 51.216 92.5165 51.696C91.7485 52.176 91.3645 52.896 91.3645 53.856C91.3645 55.68 92.8045 56.88 95.6845 57.456C101.157 58.368 104.973 59.808 107.133 61.776C109.341 63.744 110.445 66.6 110.445 70.344C110.445 73.944 109.101 76.752 106.413 78.768C103.725 80.736 99.8125 81.72 94.6765 81.72C90.9325 81.72 87.3805 81.36 84.0205 80.64C82.8685 80.4 81.9085 79.8 81.1405 78.84C80.4205 77.832 80.0605 76.704 80.0605 75.456V74.88C80.0605 73.872 80.4685 73.104 81.2845 72.576C82.1005 72 83.0125 71.832 84.0205 72.072C87.1405 72.888 90.2125 73.296 93.2365 73.296C96.7885 73.296 98.5645 72.264 98.5645 70.2C98.5645 69.24 98.2285 68.496 97.5565 67.968C96.9325 67.44 95.7325 66.984 93.9565 66.6ZM136.525 63.864C130.669 63.864 127.741 65.664 127.741 69.264C127.741 70.56 128.125 71.592 128.893 72.36C129.661 73.08 130.693 73.44 131.989 73.44C134.293 73.44 136.165 72.72 137.605 71.28C139.045 69.792 139.765 67.824 139.765 65.376V64.512C139.765 64.08 139.549 63.864 139.117 63.864H136.525ZM128.461 81.72C125.149 81.72 122.413 80.664 120.253 78.552C118.141 76.392 117.085 73.608 117.085 70.2C117.085 61.464 123.565 57.096 136.525 57.096H139.117C139.549 57.096 139.765 56.904 139.765 56.52V56.16C139.765 54.336 139.285 53.016 138.325 52.2C137.413 51.384 135.853 50.976 133.645 50.976C130.717 50.976 127.213 51.432 123.133 52.344C122.125 52.536 121.213 52.32 120.397 51.696C119.629 51.072 119.245 50.256 119.245 49.248V49.104C119.245 47.904 119.605 46.824 120.325 45.864C121.093 44.856 122.053 44.256 123.205 44.064C127.429 43.248 131.077 42.84 134.149 42.84C140.437 42.84 144.877 43.968 147.469 46.224C150.109 48.48 151.429 52.224 151.429 57.456V76.896C151.429 78 151.021 78.96 150.205 79.776C149.389 80.592 148.429 81 147.325 81H144.661C143.509 81 142.525 80.616 141.709 79.848C140.893 79.032 140.461 78.048 140.413 76.896V76.104C140.413 76.056 140.389 76.032 140.341 76.032C140.245 76.032 140.197 76.056 140.197 76.104C137.173 79.848 133.261 81.72 128.461 81.72ZM164.612 81C163.508 81 162.548 80.592 161.732 79.776C160.964 78.96 160.58 78 160.58 76.896V47.664C160.58 46.56 160.964 45.6 161.732 44.784C162.548 43.968 163.508 43.56 164.612 43.56H167.564C168.716 43.56 169.676 43.968 170.444 44.784C171.26 45.552 171.692 46.512 171.74 47.664L171.812 48.24C171.812 48.288 171.836 48.312 171.884 48.312L172.028 48.168C175.148 44.616 178.892 42.84 183.26 42.84C187.628 42.84 190.772 44.088 192.692 46.584C194.612 49.032 195.572 53.232 195.572 59.184V76.896C195.572 78 195.164 78.96 194.348 79.776C193.58 80.592 192.644 81 191.54 81H188.372C187.268 81 186.308 80.592 185.492 79.776C184.676 78.96 184.268 78 184.268 76.896V59.544C184.268 56.664 183.884 54.696 183.116 53.64C182.348 52.536 180.956 51.984 178.94 51.984C177.26 51.984 175.7 52.68 174.26 54.072C172.868 55.416 172.172 56.88 172.172 58.464V76.896C172.172 78 171.764 78.96 170.948 79.776C170.18 80.592 169.244 81 168.14 81H164.612Z" fill="white"/>
</svg>
